<?xml version="1.0" encoding="UTF-8"?>
<svg width="510.24pt" height="184.25pt" version="1.1" viewBox="0 0 510.24 184.25" xmlns="http://www.w3.org/2000/svg">
<style>
  text {
    fill: white;
    font-family: "Helvetica Neue";
  }
</style>
<defs>
<marker id="a" color="black" overflow="visible" markerHeight="6" markerWidth="7" orient="auto" viewBox="-1 -3 7 6">
<path d="m4.8 0-4.8-1.8v3.6z" fill="currentColor" stroke="currentColor"/>
</marker>
</defs>
<g fill="none">
<title>Canvas 1</title>
<rect width="510.24" height="184.25" fill="#fff"/>
<g>
<title>Layer 1</title>
<rect x="5.6693" y="5.6693" width="116.22" height="48.189" fill="#fd8008"/>
<text transform="translate(63.7793 29.7638)" dominant-baseline="middle" text-anchor="middle">experimental</text>
<rect x="161.57" y="113.39" width="150.24" height="68.031" fill="#108001"/>
<text transform="translate(236.69 147.4055)" dominant-baseline="middle" text-anchor="middle" font-size="19">stable</text>
<path d="m63.356 53.858c2.0388 19.203 10.427 45.968 38.691 65.197 13.679 9.3061 30.217 15.625 46.951 19.9" marker-end="url(#a)" stroke="#000" stroke-linecap="round" stroke-linejoin="round" stroke-width="2"/>
<path d="m311.81 131.57c18.392-5.7638 38.128-13.509 56.693-23.85 25.216-14.046 43.275-30.1 55.731-43.973" marker-end="url(#a)" stroke="#000" stroke-linecap="round" stroke-linejoin="round" stroke-width="2"/>
<rect x="391.18" y="119.06" width="113.39" height="48.189" fill="#074080"/>
<text transform="translate(447.875 143.1545)" dominant-baseline="middle" text-anchor="middle">superseded</text>
<line x1="311.81" x2="378.29" y1="147.22" y2="145.23" marker-end="url(#a)" stroke="#000" stroke-linecap="round" stroke-linejoin="round" stroke-width="2"/>
<rect x="391.18" y="5.6693" width="113.39" height="48.189" fill="#fd8008"/>
<text transform="translate(447.875 29.7638)" dominant-baseline="middle" text-anchor="middle">deprecated</text>
</g>
</g>
</svg>
